<?xml version="1.0" encoding="UTF-8"?>
<svg version="1.1" xmlns="http://www.w3.org/2000/svg" width="842" height="320">
<path d="M0 0 C277.86 0 555.72 0 842 0 C842 105.6 842 211.2 842 320 C564.14 320 286.28 320 0 320 C0 214.4 0 108.8 0 0 Z " fill="#0B111B" transform="translate(0,0)"/>
<path d="M0 0 C2.18331026 1.73620296 3.7971488 3.45269603 5.04882812 5.95605469 C5.18184585 8.51123234 5.23874749 11.02459733 5.23632812 13.58105469 C5.23624756 14.40009277 5.23616699 15.21913086 5.23608398 16.06298828 C5.15400323 25.63792479 4.47792479 35.18069336 3.83081055 44.73022461 C3.17615862 54.44907884 2.70560688 64.16244723 2.47875977 73.90185547 C2.01967871 88.9852041 2.01967871 88.9852041 -2.45117188 93.45605469 C-6.54522597 95.91248715 -10.00831206 96.39875217 -14.69726562 96.90136719 C-15.51069427 96.99188354 -16.32412292 97.0823999 -17.16220093 97.17565918 C-18.95330935 97.37478041 -20.74459969 97.57227014 -22.53604126 97.76837158 C-27.49053614 98.31144464 -32.4434541 98.86855718 -37.39648438 99.42480469 C-38.46496109 99.54457672 -39.53343781 99.66434875 -40.6342926 99.78775024 C-53.06760097 101.18604906 -65.49295383 102.65116378 -77.91751099 104.12493896 C-80.44711992 104.42492496 -82.97680145 104.72429947 -85.50656128 105.02301025 C-97.99859062 106.49830533 -110.48700108 107.9977399 -122.96289062 109.60449219 C-123.91799026 109.72619781 -124.8730899 109.84790344 -125.85713196 109.97329712 C-127.17538216 110.14531143 -127.17538216 110.14531143 -128.52026367 110.32080078 C-129.28348434 110.41976654 -130.04670502 110.5187323 -130.83305359 110.62069702 C-132.91502028 110.95033087 -134.90873405 111.44066935 -136.95117188 111.95605469 C-142.61874685 112.57192597 -147.2844744 113.01376655 -152.20117188 109.89355469 C-157.75195006 100.89675436 -153.45533651 83.59888714 -152.57617188 73.63183594 C-152.13837789 68.53693913 -151.78664589 63.44391395 -151.48661804 58.33909607 C-151.27170508 54.70233552 -151.03922459 51.06676793 -150.80630493 47.43112183 C-150.69500458 45.62180722 -150.59172579 43.81198042 -150.49667358 42.0017395 C-150.36081178 39.43783861 -150.19600229 36.87722089 -150.02539062 34.31542969 C-149.97517761 33.1606739 -149.97517761 33.1606739 -149.9239502 31.98258972 C-149.64095612 28.1559932 -149.0630873 26.10328538 -146.72216797 23.02368164 C-143.8249212 20.86185055 -142.07006755 20.11565798 -138.54101562 19.51464844 C-137.48188965 19.32555908 -136.42276367 19.13646973 -135.33154297 18.94165039 C-134.19539551 18.76077881 -133.05924805 18.57990723 -131.88867188 18.39355469 C-130.1187085 18.08840942 -130.1187085 18.08840942 -128.31298828 17.77709961 C-118.34901982 16.09278018 -108.34513695 14.64300004 -98.32983398 13.29956055 C-92.87405759 12.56264003 -87.5472657 11.69355817 -82.18994141 10.43139648 C-76.89608143 9.30738936 -71.48878634 8.77500899 -66.12304688 8.10058594 C-61.99976185 7.56501959 -57.93153564 7.00451572 -53.88085938 6.05761719 C-47.14520545 4.48526578 -40.31330408 3.39205608 -33.49560547 2.24169922 C-31.88553433 1.96842579 -30.27614649 1.69109484 -28.66748047 1.40966797 C-5.07802574 -2.71692168 -5.07802574 -2.71692168 0 0 Z " fill="#091F30" transform="translate(223.951171875,64.0439453125)"/>
<path d="M0 0 C3.11071087 2.36525591 6.14799789 4.81944984 9.1953125 7.265625 C10.1853125 7.925625 11.1753125 8.585625 12.1953125 9.265625 C12.1953125 9.925625 12.1953125 10.585625 12.1953125 11.265625 C11.23044922 11.39614258 10.26558594 11.52666016 9.27148438 11.66113281 C-11.46870591 14.47337025 -32.1707405 17.37704992 -52.75756836 21.17919922 C-59.36437238 22.3815624 -65.98948095 23.46288368 -72.6171875 24.54296875 C-75.26567431 24.97821877 -77.91411349 25.41375029 -80.5625 25.84960938 C-84.68927289 26.52844153 -88.81629909 27.20560138 -92.94433594 27.87670898 C-95.65768422 28.31795352 -98.37048694 28.76231403 -101.08276367 29.21009827 C-103.61864088 29.62872269 -106.15522829 30.04307593 -108.69262695 30.45237732 C-123.3477918 32.18363622 -123.3477918 32.18363622 -134.8046875 40.265625 C-136.42607881 43.50840761 -136.14870516 47.09736895 -136.3046875 50.66796875 C-136.3655957 51.91822594 -136.3655957 51.91822594 -136.42773438 53.19374084 C-136.55763716 55.86335238 -136.6818101 58.53318143 -136.8046875 61.203125 C-136.96651723 64.71249124 -137.13393997 68.22152645 -137.3046875 71.73046875 C-137.34013672 72.5399144 -137.37558594 73.34936005 -137.41210938 74.18333435 C-137.5697484 77.41910426 -137.77477134 80.17587653 -138.8046875 83.265625 C-138.94686884 84.87526999 -139.03954267 86.48953577 -139.10180664 88.10424805 C-139.14177261 89.0850383 -139.18173859 90.06582855 -139.22291565 91.07633972 C-139.28079506 92.66083672 -139.28079506 92.66083672 -139.33984375 94.27734375 C-139.38282089 95.36070511 -139.42579803 96.44406647 -139.47007751 97.56025696 C-139.6065545 101.02440016 -139.73694034 104.48874251 -139.8671875 107.953125 C-139.95858365 110.30014585 -140.05037556 112.64715132 -140.14257812 114.99414062 C-140.36787572 120.75113147 -140.58817123 126.50829757 -140.8046875 132.265625 C-139.56133932 133.06807226 -138.31455895 133.8652027 -137.06640625 134.66015625 C-136.37248779 135.10464111 -135.67856934 135.54912598 -134.96362305 136.00708008 C-123.51504327 142.6809949 -108.83801885 142.65564659 -95.9921875 142.640625 C-95.30213623 142.64107819 -94.61208496 142.64153137 -93.90112305 142.64199829 C-81.46957772 142.61856316 -69.16815911 141.7035419 -56.8046875 140.453125 C-55.56445328 140.32910309 -55.56445328 140.32910309 -54.29916382 140.20257568 C-44.98418419 139.25260018 -35.76978257 138.06373237 -26.58496094 136.22123718 C-21.88947406 135.31439186 -17.5613355 135.15021412 -12.8046875 135.265625 C-15.37859661 136.98156441 -17.46442314 138.0090834 -20.3125 139.11328125 C-53.87520667 152.34583553 -81.50724928 171.52375241 -104.8046875 199.265625 C-108.71561952 195.44849762 -112.35570363 191.46109867 -115.9296875 187.328125 C-116.49518311 186.67569824 -117.06067871 186.02327148 -117.64331055 185.35107422 C-121.91578337 180.38397306 -125.99199516 175.28809663 -129.99731445 170.10449219 C-132.42574109 166.97406733 -134.9181912 163.97725874 -137.6171875 161.078125 C-148.40268652 149.11400444 -157.36867468 136.02191541 -163.8046875 121.265625 C-164.08779785 120.64236328 -164.3709082 120.01910156 -164.66259766 119.37695312 C-174.92068036 96.70181229 -176.74284427 69.72094357 -168.05712891 46.24511719 C-162.75651961 32.37697918 -155.06733701 21.00305901 -144.8046875 10.265625 C-144.20398438 9.59015625 -143.60328125 8.9146875 -142.984375 8.21875 C-106.47444014 -31.29416652 -41.35251474 -30.50206356 0 0 Z " fill="#D021A7" transform="translate(199.8046875,43.734375)"/>
<path d="M0 0 C7.18584121 -0.05107759 14.37163488 -0.08589083 21.55761719 -0.10986328 C23.99773915 -0.11986643 26.4378493 -0.13347322 28.87792969 -0.15087891 C32.40302463 -0.17537875 35.92795988 -0.18654033 39.453125 -0.1953125 C41.06637665 -0.21079636 41.06637665 -0.21079636 42.71221924 -0.22659302 C54.87258073 -0.22835904 64.70468221 1.35407941 75 8 C76.093125 8.70125 77.18625 9.4025 78.3125 10.125 C86.41064518 18.78813205 88.38501215 28.852041 88.27734375 40.30078125 C87.37331988 52.35867707 81.18433326 63.81466965 72.48828125 72.10546875 C67.25550556 76.08960722 59.66850992 81 53 81 C55.52215727 86.23920851 58.21462892 91.08455755 61.5 95.875 C62.37243237 97.1679441 63.24482636 98.46091409 64.1171875 99.75390625 C65.07788148 101.16943613 66.03883331 102.58479105 67 104 C69.21476145 107.26654147 71.42161352 110.53827819 73.625 113.8125 C74.15802734 114.59544434 74.69105469 115.37838867 75.24023438 116.18505859 C75.73072266 116.91418457 76.22121094 117.64331055 76.7265625 118.39453125 C77.16564941 119.04268799 77.60473633 119.69084473 78.05712891 120.35864258 C79 122 79 122 79 124 C52.57499469 126.82581631 52.57499469 126.82581631 45.66162109 122.55566406 C41.9997581 118.57742112 40.11396641 113.68811605 38.15625 108.70947266 C36.06862228 103.81747678 33.21934454 99.41728172 30.375 94.9375 C29.87145996 94.06319336 29.36791992 93.18888672 28.84912109 92.28808594 C26.11350769 87.70833832 26.11350769 87.70833832 21.59863281 85.22705078 C19.35545274 84.97044923 17.25207771 84.87677548 15 85 C14.96132813 86.08087891 14.96132813 86.08087891 14.921875 87.18359375 C14.26539018 99.61204498 12.04478086 111.73131481 10 124 C0.76 124 -8.48 124 -18 124 C-17.37975239 116.55702863 -16.73171821 109.20317109 -15.75 101.8125 C-15.6250415 100.86270264 -15.50008301 99.91290527 -15.37133789 98.93432617 C-14.15746072 89.87924597 -12.80677465 80.8451282 -11.4375 71.8125 C-11.33167603 71.11412018 -11.22585205 70.41574036 -11.11682129 69.69619751 C-10.11173514 63.08028898 -9.08903741 56.46864441 -7.96875 49.87109375 C-6.67480824 42.19603389 -5.64060101 34.48464936 -4.58789062 26.7734375 C-3.33242002 17.79007016 -1.73250833 8.90093365 0 0 Z " fill="#0691EC" transform="translate(507,88)"/>
<path d="M0 0 C9.57 0 19.14 0 29 0 C27.88764045 13.34831461 27.88764045 13.34831461 26.625 19.4375 C25.380945 25.66386957 24.41689428 31.89642033 23.5625 38.1875 C22.62242922 45.02314871 21.52540975 51.79361244 20.1875 58.5625 C18.3958184 67.6606467 16.8056128 76.78722613 15.27383423 85.93209839 C15.01266895 87.49083682 14.75032377 89.04937813 14.48666382 90.60769653 C12.90079265 99.99431874 11.51932981 109.37043292 10.43408203 118.82885742 C10 122 10 122 9 125 C0.75 125 -7.5 125 -16 125 C-16 121.7 -16 118.4 -16 115 C-17.134375 116.0725 -18.26875 117.145 -19.4375 118.25 C-26.49179131 124.91951179 -34.10780164 126.66431047 -43.5625 126.5 C-44.45646484 126.51546875 -45.35042969 126.5309375 -46.27148438 126.546875 C-53.47645661 126.50470984 -58.71299075 124.82159201 -64.20703125 120.10546875 C-74.30920639 108.03693349 -73.7722764 94.0839066 -73 79 C-71.57266914 66.98187415 -64.35922319 54.03946257 -55.484375 45.9296875 C-43.90782748 36.93784084 -33.55910011 33.48013892 -19.0625 33.75 C-17.3599707 33.75773437 -17.3599707 33.75773437 -15.62304688 33.765625 C-7.31012538 33.84493731 -7.31012538 33.84493731 -5 35 C-4.89042969 33.89785156 -4.78085937 32.79570313 -4.66796875 31.66015625 C-3.56695452 20.99334101 -1.96568392 10.54321378 0 0 Z " fill="#FBFBFB" transform="translate(462,87)"/>
<path d="M0 0 C10.89 0 21.78 0 33 0 C38.01538113 22.50143965 38.01538113 22.50143965 39.4375 31.6875 C40.59410146 39.06104295 42.09690959 46.33345068 43.6875 53.625 C46.11282275 64.77369868 48.45790955 75.93626791 50.71743774 87.11981201 C51.06693462 88.84588719 51.41856896 90.57153125 51.77255249 92.29669189 C54.00246692 103.17545927 55.75661902 113.96182193 57 125 C46.77 125 36.54 125 26 125 C25.34 121.2875 24.68 117.575 24 113.75 C23.68675781 112.00348145 23.68675781 112.00348145 23.3671875 110.22167969 C23.20476562 109.29774414 23.04234375 108.37380859 22.875 107.421875 C22.70742188 106.47924805 22.53984375 105.53662109 22.3671875 104.56542969 C22 102 22 102 22 98 C8.47 98 -5.06 98 -19 98 C-19.66 99.98 -20.32 101.96 -21 104 C-21.76378726 105.74026241 -22.55834775 107.46733763 -23.3828125 109.1796875 C-23.78387207 110.01741699 -24.18493164 110.85514648 -24.59814453 111.71826172 C-25.10200684 112.75998535 -25.60586914 113.80170898 -26.125 114.875 C-27.73375 118.21625 -29.3425 121.5575 -31 125 C-41.89 125 -52.78 125 -64 125 C-62.55063185 120.65189556 -61.18168404 117.16419488 -59.09375 113.17578125 C-58.51367188 112.06267578 -57.93359375 110.94957031 -57.3359375 109.80273438 C-56.73007812 108.65095703 -56.12421875 107.49917969 -55.5 106.3125 C-54.92507813 105.21099609 -54.35015625 104.10949219 -53.7578125 102.97460938 C-51.0684697 97.82786492 -48.36454369 92.68893196 -45.65234375 87.55419922 C-39.68249965 76.24590277 -33.81567023 64.88826362 -28 53.5 C-18.8441964 35.57107677 -9.49180158 17.75318444 0 0 Z " fill="#FBFBFB" transform="translate(328,87)"/>
<path d="M0 0 C8.91 0 17.82 0 27 0 C26.48637714 14.39029554 24.10809408 28.27035162 21.625 42.4375 C18.88579447 58.12417824 16.40787378 73.76155627 14.64624023 89.59082031 C13.94307547 95.77552623 12.89632811 101.8731935 11.74609375 107.98828125 C10.75596666 113.31215832 9.89024774 118.65851354 9 124 C0.42 124 -8.16 124 -17 124 C-17 120.7 -17 117.4 -17 114 C-17.8353125 114.68835938 -17.8353125 114.68835938 -18.6875 115.390625 C-21.08551694 117.31876025 -23.52534186 119.17141558 -26 121 C-26.5878125 121.44730469 -27.175625 121.89460938 -27.78125 122.35546875 C-35.14050791 126.98845611 -45.83365405 126.04900425 -54.078125 124.375 C-61.22543974 121.91948083 -65.62256198 117.21850283 -69.28125 110.7265625 C-75.33935452 98.04781518 -74.59662533 80.73800158 -70.1875 67.57421875 C-64.24929849 53.24830761 -54.23573278 43.35986067 -40.36328125 36.7421875 C-29.29448846 32.3270205 -16.59574654 33.09575858 -5 35 C-4.96261719 34.20980469 -4.92523437 33.41960937 -4.88671875 32.60546875 C-4.45742505 25.24013565 -3.65052837 18.03483255 -2.5 10.75 C-2.36940186 9.91621826 -2.23880371 9.08243652 -2.10424805 8.22338867 C-1.13267481 2.26534962 -1.13267481 2.26534962 0 0 Z " fill="#038AEC" transform="translate(711,88)"/>
<path d="M0 0 C-2.99467649 4.64887873 -6.26919652 8.95616214 -9.75 13.25 C-10.28222168 13.91112793 -10.81444336 14.57225586 -11.36279297 15.25341797 C-12.90640367 17.1706712 -14.4528397 19.08561082 -16 21 C-20.76533245 26.91035933 -25.45591284 32.87045913 -30.07421875 38.89624023 C-36.99955069 47.92371656 -44.06160241 56.84275726 -51.1796875 65.71875 C-54.92313694 70.41011153 -58.59157133 75.15896497 -62.23828125 79.92578125 C-67.78895288 87.18036952 -73.43679711 94.34878394 -79.1640625 101.46484375 C-80.92529403 103.65370182 -82.66737381 105.8532385 -84.3984375 108.06640625 C-85.09195313 108.95199219 -85.78546875 109.83757812 -86.5 110.75 C-87.0878125 111.50796875 -87.675625 112.2659375 -88.28125 113.046875 C-90.14420356 115.16386768 -91.49422984 116.67652985 -94 118 C-98.19621674 117.99048477 -100.30204996 117.57842343 -103.5546875 114.8828125 C-104.32039063 113.97273438 -105.08609375 113.06265625 -105.875 112.125 C-106.72964844 111.1246875 -107.58429688 110.124375 -108.46484375 109.09375 C-109.71974609 107.56234375 -109.71974609 107.56234375 -111 106 C-112.11568359 104.65421875 -112.11568359 104.65421875 -113.25390625 103.28125 C-114.72493481 101.4918056 -116.18834697 99.69607605 -117.64453125 97.89453125 C-120.26904339 94.66938449 -122.93905084 91.4864706 -125.625 88.3125 C-126.31952271 87.48721802 -126.31952271 87.48721802 -127.02807617 86.64526367 C-130.21578379 82.87260347 -133.51252918 79.22677615 -136.953125 75.68359375 C-138 74 -138 74 -138.00390625 72.16015625 C-136.49820884 68.92027038 -134.13260937 66.54969874 -131.6875 64 C-131.14697998 63.42894531 -130.60645996 62.85789063 -130.04956055 62.26953125 C-128.92199705 61.08355241 -127.79051531 59.90128729 -126.65527344 58.72265625 C-125.13424469 57.13970951 -123.63241235 55.54070096 -122.1328125 53.9375 C-104.12633257 34.9833106 -81.21169155 21.51669203 -57 12 C-55.53421509 11.40674927 -55.53421509 11.40674927 -54.03881836 10.80151367 C-44.84185058 7.27267057 -35.66211437 5.32095698 -25.9831543 3.63208008 C-23.40752509 3.1822651 -20.83559956 2.71461817 -18.26367188 2.24414062 C-16.61216277 1.94689477 -14.96047602 1.65063377 -13.30859375 1.35546875 C-12.54711533 1.21803757 -11.7856369 1.08060638 -11.00108337 0.93901062 C-7.29445848 0.29634874 -3.76436628 -0.16100519 0 0 Z " fill="#008BF0" transform="translate(233,171)"/>
<path d="M0 0 C1.03447266 -0.02900391 2.06894531 -0.05800781 3.13476562 -0.08789062 C13.35441306 -0.17108124 22.31326855 2.13781327 29.77734375 9.41796875 C35.32778532 15.75200207 36.15671045 21.58085534 35.87890625 29.96875 C34.99496098 36.66483095 31.82440447 40.41188119 26.6875 44.5625 C12.48545605 54.26723004 -5.77758234 55.5948631 -22.5625 55.3125 C-22.21567072 56.73632545 -21.83347558 58.15155252 -21.4375 59.5625 C-21.22867188 60.35140625 -21.01984375 61.1403125 -20.8046875 61.953125 C-19.00359941 65.37405962 -16.97821365 66.55301029 -13.5625 68.3125 C-1.33416819 69.96814834 10.60778723 67.5462678 21.59765625 62.08203125 C23.4375 61.3125 23.4375 61.3125 26.4375 61.3125 C26.5705725 64.65409835 26.54168338 67.96995004 26.4375 71.3125 C26.4065625 72.36695313 26.375625 73.42140625 26.34375 74.5078125 C26.05908622 77.72609464 25.67142194 80.32296119 24.4375 83.3125 C21.37510289 85.75130415 18.18299084 86.37460622 14.4375 87.3125 C13.54224609 87.5703125 12.64699219 87.828125 11.72460938 88.09375 C4.16263121 90.18993244 -2.86034312 90.80070596 -10.6875 90.75 C-11.78964844 90.76998047 -12.89179687 90.78996094 -14.02734375 90.81054688 C-24.29228686 90.80445853 -33.54572762 88.08739208 -41.1171875 80.8203125 C-51.03503699 70.11298246 -51.2260316 57.70840436 -50.73730469 43.87646484 C-49.88690786 31.40318618 -43.0860631 19.77027523 -34.14453125 11.234375 C-23.57841615 3.3697326 -12.99341022 0.11833707 0 0 Z " fill="#0081EB" transform="translate(785.5625,122.6875)"/>
<path d="M0 0 C2.18331026 1.73620296 3.7971488 3.45269603 5.04882812 5.95605469 C5.18184585 8.51123234 5.23874749 11.02459733 5.23632812 13.58105469 C5.23624756 14.40009277 5.23616699 15.21913086 5.23608398 16.06298828 C5.15400323 25.63792479 4.47792479 35.18069336 3.83081055 44.73022461 C3.17615862 54.44907884 2.70560688 64.16244723 2.47875977 73.90185547 C2.01967871 88.9852041 2.01967871 88.9852041 -2.45117188 93.45605469 C-6.54522597 95.91248715 -10.00831206 96.39875217 -14.69726562 96.90136719 C-15.51069427 96.99188354 -16.32412292 97.0823999 -17.16220093 97.17565918 C-18.95330935 97.37478041 -20.74459969 97.57227014 -22.53604126 97.76837158 C-27.49053614 98.31144464 -32.4434541 98.86855718 -37.39648438 99.42480469 C-38.46496109 99.54457672 -39.53343781 99.66434875 -40.6342926 99.78775024 C-53.06760097 101.18604906 -65.49295383 102.65116378 -77.91751099 104.12493896 C-80.44711992 104.42492496 -82.97680145 104.72429947 -85.50656128 105.02301025 C-97.99859062 106.49830533 -110.48700108 107.9977399 -122.96289062 109.60449219 C-123.91799026 109.72619781 -124.8730899 109.84790344 -125.85713196 109.97329712 C-127.17538216 110.14531143 -127.17538216 110.14531143 -128.52026367 110.32080078 C-129.28348434 110.41976654 -130.04670502 110.5187323 -130.83305359 110.62069702 C-132.91502028 110.95033087 -134.90873405 111.44066935 -136.95117188 111.95605469 C-142.61874685 112.57192597 -147.2844744 113.01376655 -152.20117188 109.89355469 C-157.75195006 100.89675436 -153.45533651 83.59888714 -152.57617188 73.63183594 C-152.13837789 68.53693913 -151.78664589 63.44391395 -151.48661804 58.33909607 C-151.27170508 54.70233552 -151.03922459 51.06676793 -150.80630493 47.43112183 C-150.69500458 45.62180722 -150.59172579 43.81198042 -150.49667358 42.0017395 C-150.36081178 39.43783861 -150.19600229 36.87722089 -150.02539062 34.31542969 C-149.97517761 33.1606739 -149.97517761 33.1606739 -149.9239502 31.98258972 C-149.64095612 28.1559932 -149.0630873 26.10328538 -146.72216797 23.02368164 C-143.8249212 20.86185055 -142.07006755 20.11565798 -138.54101562 19.51464844 C-137.48188965 19.32555908 -136.42276367 19.13646973 -135.33154297 18.94165039 C-134.19539551 18.76077881 -133.05924805 18.57990723 -131.88867188 18.39355469 C-130.1187085 18.08840942 -130.1187085 18.08840942 -128.31298828 17.77709961 C-118.34901982 16.09278018 -108.34513695 14.64300004 -98.32983398 13.29956055 C-92.87405759 12.56264003 -87.5472657 11.69355817 -82.18994141 10.43139648 C-76.89608143 9.30738936 -71.48878634 8.77500899 -66.12304688 8.10058594 C-61.99976185 7.56501959 -57.93153564 7.00451572 -53.88085938 6.05761719 C-47.14520545 4.48526578 -40.31330408 3.39205608 -33.49560547 2.24169922 C-31.88553433 1.96842579 -30.27614649 1.69109484 -28.66748047 1.40966797 C-5.07802574 -2.71692168 -5.07802574 -2.71692168 0 0 Z M-25.45117188 10.14355469 C-26.46131348 10.2722998 -27.47145508 10.40104492 -28.51220703 10.53369141 C-37.80375719 11.74890089 -47.0664934 13.14616887 -56.32617188 14.58105469 C-57.04119873 14.69105804 -57.75622559 14.8010614 -58.49291992 14.91439819 C-60.52913835 15.22894529 -62.56449091 15.54853857 -64.59960938 15.87011719 C-65.77700684 16.05525879 -66.9544043 16.24040039 -68.16748047 16.43115234 C-70.89511486 16.8139706 -70.89511486 16.8139706 -72.95117188 17.95605469 C-74.82082684 18.26161319 -76.69756169 18.52401541 -78.57617188 18.76855469 C-85.41140052 19.70672333 -92.21046203 20.80938125 -99.01367188 21.95605469 C-119.03111643 25.32153372 -119.03111643 25.32153372 -127.76757812 26.44824219 C-129.04503906 26.61582031 -130.3225 26.78339844 -131.63867188 26.95605469 C-133.37697266 27.17261719 -133.37697266 27.17261719 -135.15039062 27.39355469 C-138.07668122 27.71221028 -138.07668122 27.71221028 -139.95117188 29.95605469 C-140.48025562 32.66249249 -140.48025562 32.66249249 -140.73242188 35.87792969 C-140.85125732 37.11704102 -140.97009277 38.35615234 -141.0925293 39.6328125 C-141.21262331 40.99051167 -141.33215698 42.3482605 -141.45117188 43.70605469 C-141.57891037 45.0976813 -141.70692503 46.48928258 -141.83520508 47.88085938 C-142.72073695 57.64707075 -143.46922865 67.4228311 -144.13867188 77.20605469 C-144.22246094 78.42260742 -144.30625 79.63916016 -144.39257812 80.89257812 C-145.11558294 91.41797395 -145.11558294 91.41797395 -144.95117188 101.95605469 C-143.40317247 103.5040541 -141.98494052 103.12574307 -139.82617188 103.14355469 C-135.80591996 103.07691868 -131.9284001 102.75038748 -127.94726562 102.19433594 C-126.61232857 102.01097511 -125.27736508 101.82780671 -123.94238281 101.64477539 C-123.17059692 101.53799469 -122.39881104 101.43121399 -121.6036377 101.32119751 C-112.8084711 100.11044036 -104.00797784 98.9381556 -95.20754623 97.7663908 C-91.8547146 97.31975599 -88.50227833 96.87051039 -85.15063477 96.41503906 C-69.3166634 94.26911797 -53.54361742 92.44543341 -37.59814453 91.38110352 C-32.08387072 90.99998554 -26.61689059 90.37242046 -21.13867188 89.64355469 C-20.37806961 89.55126587 -19.61746735 89.45897705 -18.83381653 89.3638916 C-13.63390015 88.55782991 -11.25387409 86.99174201 -7.95117188 82.95605469 C-7.12479059 79.89934866 -7.12479059 79.89934866 -7.1081543 76.53271484 C-7.0186274 74.61514877 -7.0186274 74.61514877 -6.92729187 72.65884399 C-6.88653195 71.27095089 -6.84632857 69.88304135 -6.80664062 68.49511719 C-6.74856685 67.06163258 -6.68841921 65.62823064 -6.626297 64.19491577 C-6.46872821 60.42692654 -6.34002484 56.65847999 -6.21716309 52.88922119 C-6.08727463 49.06963187 -5.92881716 45.25123856 -5.7734375 41.43261719 C-5.30227294 29.69631782 -5.30227294 29.69631782 -4.95117188 17.95605469 C-4.90587845 16.70448578 -4.86058502 15.45291687 -4.81391907 14.16342163 C-4.59298848 10.86341896 -4.59298848 10.86341896 -6.95117188 8.95605469 C-13.1970374 8.59733944 -19.26190984 9.34017612 -25.45117188 10.14355469 Z " fill="#4D83EA" transform="translate(223.951171875,64.0439453125)"/>
<path d="M0 0 C4.93692727 3.22411577 8.52119481 6.58672364 12.3203125 11.078125 C16.22724301 15.54838037 20.59514139 18.54211694 25.96484375 21.03125 C28 22 28 22 29.69140625 23.03125 C50.43864852 35.28465483 84.07808556 29.49329296 107 27.1875 C107.82718536 27.10490936 108.65437073 27.02231873 109.50662231 26.93722534 C118.8211758 25.98712998 128.03531958 24.79802419 137.21972656 22.95561218 C141.91521344 22.04876686 146.243352 21.88458912 151 22 C148.42609089 23.71593941 146.34026436 24.7434584 143.4921875 25.84765625 C109.92948083 39.08021053 82.29743822 58.25812741 59 86 C55.08906798 82.18287262 51.44898387 78.19547367 47.875 74.0625 C47.30950439 73.41007324 46.74400879 72.75764648 46.16137695 72.08544922 C41.88890413 67.11834806 37.81269234 62.02247163 33.80737305 56.83886719 C31.37894641 53.70844233 28.8864963 50.71163374 26.1875 47.8125 C15.34309783 35.78303945 0.50082869 18.85356807 -1 2 C-0.67 1.34 -0.34 0.68 0 0 Z " fill="#A12DF1" transform="translate(36,157)"/>
<path d="M0 0 C9.24 0 18.48 0 28 0 C27.42094206 6.36963735 26.84684895 12.58065425 25.94921875 18.88671875 C25.80107224 19.93172798 25.80107224 19.93172798 25.64993286 20.99784851 C25.33240424 23.22821677 25.01030383 25.4578896 24.6875 27.6875 C24.57739594 28.4543512 24.46729187 29.22120239 24.35385132 30.0112915 C22.54809752 42.57727406 20.54988638 55.10245958 18.40234375 67.61474609 C17.67857158 71.90555561 17.03157318 76.20722048 16.39453125 80.51171875 C15.9969238 83.01940135 15.49794052 85.51029741 15 88 C5.76 88 -3.48 88 -13 88 C-11.87298486 75.60283341 -11.87298486 75.60283341 -11.01953125 69.60546875 C-10.87951942 68.61726639 -10.87951942 68.61726639 -10.73667908 67.60910034 C-10.43195203 65.46807434 -10.12258951 63.32775546 -9.8125 61.1875 C-9.70595093 60.44619843 -9.59940186 59.70489685 -9.48962402 58.94113159 C-7.67098958 46.30021137 -5.73713476 33.67794438 -3.75 21.0625 C-3.61953278 20.23172943 -3.48906555 19.40095886 -3.35464478 18.54501343 C-2.98353134 16.18718788 -2.60957729 13.82983423 -2.234375 11.47265625 C-2.12415512 10.77316864 -2.01393524 10.07368103 -1.90037537 9.35299683 C-1.39140594 6.18050035 -0.78050862 3.12203449 0 0 Z " fill="#0185EB" transform="translate(608,124)"/>
<path d="M0 0 C1.55074219 0.00966797 1.55074219 0.00966797 3.1328125 0.01953125 C5.875 0.1875 5.875 0.1875 8.875 1.1875 C8.52905705 9.23067362 7.3609195 17.12625477 6.0625 25.0625 C5.90942383 26.06095947 5.75634766 27.05941895 5.59863281 28.08813477 C4.36059018 35.37848979 2.89445176 39.90750581 -3.1875 44.5 C-8.37495151 47.48002534 -13.23878291 48.04316415 -19.125 47.1875 C-22.28335169 44.75293724 -23.92481495 42.48777757 -26.125 39.1875 C-27.28122764 27.50509606 -25.41518698 17.49620649 -18.125 8.1875 C-12.70745166 2.58356811 -7.9550899 -0.10965663 0 0 Z " fill="#0C1521" transform="translate(693.125,142.8125)"/>
<path d="M0 0 C3.16634636 -0.11760715 6.33212074 -0.18771024 9.5 -0.25 C10.386875 -0.28351563 11.27375 -0.31703125 12.1875 -0.3515625 C19.61695692 -0.46081922 24.75322599 1.25272968 30.4375 6.0625 C34.09897218 10.6027255 33.53032496 16.46946826 33 22 C31.27313564 28.09603925 27.38037528 32.71951939 22 36 C15.78450847 38.85213031 10.78498163 39.39073678 4 39.1875 C3.12988281 39.17396484 2.25976562 39.16042969 1.36328125 39.14648438 C-0.75808627 39.11151678 -2.87912974 39.0577253 -5 39 C-4.52909934 25.83832658 -2.19681565 12.96105965 0 0 Z " fill="#0C141F" transform="translate(532,112)"/>
<path d="M0 0 C-0.28204773 8.39092003 -1.21748402 16.65606523 -2.5625 24.9375 C-2.68206055 25.8246167 -2.80162109 26.7117334 -2.92480469 27.62573242 C-4.00608213 33.79075786 -6.08958126 36.76245127 -11 40.62719727 C-16.27854103 44.25039505 -20.60900039 45.67929175 -26.9140625 44.7109375 C-30.64643782 43.43885453 -31.92684574 41.3040896 -34 38 C-36.4945587 30.24272715 -35.39766467 22.07205653 -32.3984375 14.6484375 C-28.96300559 8.14222846 -24.05210012 2.50741338 -17 0 C-11.61990644 -1.59948727 -5.32074138 -1.77358046 0 0 Z " fill="#111720" transform="translate(453,145)"/>
<path d="M0 0 C3.5566679 1.11242409 6.75506551 2.25221768 9.92578125 4.21484375 C10.63234863 4.64861328 11.33891602 5.08238281 12.06689453 5.52929688 C13.17846924 6.22635742 13.17846924 6.22635742 14.3125 6.9375 C15.08706543 7.41896484 15.86163086 7.90042969 16.65966797 8.39648438 C18.28352463 9.40921925 19.90523976 10.42539523 21.52490234 11.44482422 C23.99521641 12.99699433 26.47577975 14.53179919 28.95703125 16.06640625 C30.51377463 17.04307035 32.06979188 18.02089305 33.625 19 C34.36532471 19.45624756 35.10564941 19.91249512 35.8684082 20.38256836 C37.63280723 21.50808606 39.32523564 22.74498671 41 24 C41 24.99 41 25.98 41 27 C29.93007247 33.27364976 18.85797645 39.54389595 7.75 45.75 C6.6355249 46.37624268 6.6355249 46.37624268 5.49853516 47.01513672 C2.69116212 48.57889565 0.05626598 49.98124467 -3 51 C-3.21470678 39.39788204 -2.57719063 28.0454593 -1.5 16.5 C-1.35481968 14.88677703 -1.21028547 13.27349578 -1.06640625 11.66015625 C-0.71834234 7.77272887 -0.36168434 3.8861828 0 0 Z " fill="#F9F9FA" transform="translate(132,96)"/>
<path d="M0 0 C-2.57390911 1.71593941 -4.65973564 2.7434584 -7.5078125 3.84765625 C-41.07051917 17.08021053 -68.70256178 36.25812741 -92 64 C-96.21814817 60.0299782 -99.61227103 55.69159716 -103 51 C-102.28457031 50.92523438 -101.56914063 50.85046875 -100.83203125 50.7734375 C-97.22627162 49.78869211 -95.4662592 48.11684346 -92.6875 45.625 C-61.8938906 19 -61.8938906 19 -49 19 C-49 18.34 -49 17.68 -49 17 C-47.56570999 16.32645501 -46.12742943 15.66140299 -44.6875 15 C-43.48673828 14.443125 -43.48673828 14.443125 -42.26171875 13.875 C-40 13 -40 13 -37 13 C-36.67 12.34 -36.34 11.68 -36 11 C-33.71484375 10.1484375 -33.71484375 10.1484375 -30.9375 9.375 C-30.01839844 9.11460937 -29.09929687 8.85421875 -28.15234375 8.5859375 C-27.44207031 8.39257812 -26.73179687 8.19921875 -26 8 C-26.99 7.01 -26.99 7.01 -28 6 C-28.33 6.33 -28.66 6.66 -29 7 C-30.99782126 7.15825258 -33.00088834 7.25119171 -35.00390625 7.31640625 C-36.21884766 7.35830078 -37.43378906 7.40019531 -38.68554688 7.44335938 C-39.96494141 7.48267578 -41.24433594 7.52199219 -42.5625 7.5625 C-43.84576172 7.60568359 -45.12902344 7.64886719 -46.45117188 7.69335938 C-49.63399853 7.799848 -52.81690674 7.90185962 -56 8 C-55.67 7.34 -55.34 6.68 -55 6 C-52.36739956 5.55813277 -49.81317484 5.24339462 -47.16015625 5 C-46.36403427 4.91878906 -45.56791229 4.83757812 -44.74766541 4.75390625 C-42.18673823 4.49377239 -39.62481413 4.24606674 -37.0625 4 C-33.71940679 3.67287841 -30.37699046 3.33974262 -27.03515625 3 C-25.83197754 2.87828934 -25.83197754 2.87828934 -24.60449219 2.75411987 C-19.65534177 2.23319396 -14.81837656 1.52624928 -9.96899414 0.37939453 C-6.62948012 -0.26407785 -3.38893681 -0.12551618 0 0 Z " fill="#5208D9" transform="translate(187,179)"/>
<path d="M0 0 C3.5 1.8125 3.5 1.8125 6 4 C6.53753906 4.42152344 7.07507813 4.84304687 7.62890625 5.27734375 C10.14073855 8.43323562 9.45583754 12.11735477 9.34375 15.984375 C8.68170428 21.79232154 6.58970832 24.70836199 2 28.4375 C-3.02182732 30.94299052 -8.55041022 30.74931859 -14 30 C-18.45411364 27.8901567 -21.19291449 25.61810742 -23 21 C-23.66580537 16.09276785 -23.55644383 12.22881347 -21.5 7.6875 C-15.24423177 0.96254916 -9.25782235 -1.55712608 0 0 Z " fill="#12B5EF" transform="translate(632,87)"/>
<path d="M0 0 C2.76826057 2.76826057 2.77236465 5.69419029 3.2890625 9.421875 C3.39721283 10.15948059 3.50536316 10.89708618 3.61679077 11.65704346 C3.84418953 13.22001014 4.06752134 14.78357309 4.28710938 16.34765625 C4.62191348 18.72805537 4.97000245 21.10621382 5.3203125 23.484375 C5.53985699 25.00509385 5.75863157 26.52592408 5.9765625 28.046875 C6.07965729 28.75334167 6.18275208 29.45980835 6.28897095 30.18768311 C6.84957062 34.22117939 7 37.88633104 7 42 C-1.91 42 -10.82 42 -20 42 C-18.43567001 37.30701002 -16.68502287 33.16628545 -14.4375 28.8125 C-10.77481552 21.61827795 -7.29463422 14.34867979 -3.88256836 7.0324707 C-3.52042236 6.25991943 -3.15827637 5.48736816 -2.78515625 4.69140625 C-2.46426025 4.00248291 -2.14336426 3.31355957 -1.81274414 2.60375977 C-1 1 -1 1 0 0 Z " fill="#131A23" transform="translate(340,121)"/>
<path d="M0 0 C2.77042379 2.86277125 2.875 5.0136242 2.875 8.9375 C1.89817245 11.93775605 0.795619 13.33354038 -1.83984375 15.0625 C-10.16994602 19.28184417 -19.90469558 20.10539629 -29.125 19.9375 C-28.08519937 12.19277808 -25.44751239 6.77372974 -19.5625 1.55078125 C-13.77070306 -2.41715656 -6.45726007 -2.19546842 0 0 Z " fill="#0C1622" transform="translate(793.125,143.0625)"/>
<path d="M0 0 C-2.57390911 1.71593941 -4.65973564 2.7434584 -7.5078125 3.84765625 C-8.40411377 4.20110107 -9.30041504 4.5545459 -10.22387695 4.91870117 C-11.18124756 5.29615479 -12.13861816 5.6736084 -13.125 6.0625 C-25.85612191 11.1789599 -38.2683562 16.94133745 -49.43359375 25.00390625 C-51 26 -51 26 -53 26 C-53 24.02 -53 22.04 -53 20 C-51.68 19.67 -50.36 19.34 -49 19 C-49 18.34 -49 17.68 -49 17 C-47.56570999 16.32645501 -46.12742943 15.66140299 -44.6875 15 C-43.88699219 14.62875 -43.08648437 14.2575 -42.26171875 13.875 C-40 13 -40 13 -37 13 C-36.67 12.34 -36.34 11.68 -36 11 C-33.71484375 10.1484375 -33.71484375 10.1484375 -30.9375 9.375 C-30.01839844 9.11460937 -29.09929687 8.85421875 -28.15234375 8.5859375 C-27.44207031 8.39257812 -26.73179687 8.19921875 -26 8 C-26.66 7.34 -27.32 6.68 -28 6 C-28.33 6.33 -28.66 6.66 -29 7 C-30.99782126 7.15825258 -33.00088834 7.25119171 -35.00390625 7.31640625 C-36.21884766 7.35830078 -37.43378906 7.40019531 -38.68554688 7.44335938 C-39.96494141 7.48267578 -41.24433594 7.52199219 -42.5625 7.5625 C-43.84576172 7.60568359 -45.12902344 7.64886719 -46.45117188 7.69335938 C-49.63399853 7.799848 -52.81690674 7.90185962 -56 8 C-55.67 7.34 -55.34 6.68 -55 6 C-52.36739956 5.55813277 -49.81317484 5.24339462 -47.16015625 5 C-46.36403427 4.91878906 -45.56791229 4.83757812 -44.74766541 4.75390625 C-42.18673823 4.49377239 -39.62481413 4.24606674 -37.0625 4 C-33.71940679 3.67287841 -30.37699046 3.33974262 -27.03515625 3 C-25.83197754 2.87828934 -25.83197754 2.87828934 -24.60449219 2.75411987 C-19.65534177 2.23319396 -14.81837656 1.52624928 -9.96899414 0.37939453 C-6.62948012 -0.26407785 -3.38893681 -0.12551618 0 0 Z " fill="#0E1DD9" transform="translate(187,179)"/>
<path d="M0 0 C4.64124153 6.96186229 4.33902849 15.45008906 4.3125 23.5625 C4.32861328 24.55185547 4.34472656 25.54121094 4.36132812 26.56054688 C4.36545508 32.77987157 3.54248007 37.32094277 1 43 C0.608125 43.99 0.21625 44.98 -0.1875 46 C-0.455625 46.66 -0.72375 47.32 -1 48 C-1.88764864 45.05767793 -2.0146519 42.8851805 -1.59765625 39.8515625 C-0.70543841 32.05217512 -0.63757075 24.21613999 -0.4375 16.375 C-0.39421085 14.78254306 -0.35059363 13.190095 -0.30664062 11.59765625 C-0.2006458 7.73186282 -0.09908675 3.86597641 0 0 Z " fill="#9138D6" transform="translate(238,106)"/>
<path d="M0 0 C1.32 0 2.64 0 4 0 C5.32 5.28 6.64 10.56 8 16 C8.66 12.37 9.32 8.74 10 5 C10.33 5 10.66 5 11 5 C11.16631339 17.03000164 10.6524986 28.9895138 10 41 C9.67 41 9.34 41 9 41 C9 34.73 9 28.46 9 22 C8.01 21.67 7.02 21.34 6 21 C4.90234375 19.109375 4.90234375 19.109375 3.9375 16.75 C3.60105469 15.93273437 3.26460937 15.11546875 2.91796875 14.2734375 C2.61503906 13.52320312 2.31210937 12.77296875 2 12 C1.5875 11.13375 1.175 10.2675 0.75 9.375 C-0.25171293 6.20290906 -0.12950512 3.30238054 0 0 Z " fill="#B81D7C" transform="translate(52,83)"/>
<path d="M0 0 C-2 2 -2 2 -5.4375 2.9375 C-9.42413906 4.09001833 -9.42413906 4.09001833 -12 7 C-12.3258384 9.57444487 -12.3258384 9.57444487 -12.125 12.375 C-11.96877296 16.15569436 -12.2518309 19.30366799 -13 23 C-14.00738927 31.19592014 -14.28006639 39.44136452 -14.5625 47.6875 C-14.60568359 48.87794922 -14.64886719 50.06839844 -14.69335938 51.29492188 C-14.79823679 54.19653034 -14.90040196 57.09820635 -15 60 C-15.99 60.495 -15.99 60.495 -17 61 C-17.18002306 49.9775357 -16.75864979 39.04857762 -15.99291992 28.05322266 C-15.87147786 26.25049008 -15.76033837 24.44703713 -15.65893555 22.64306641 C-15.50987356 19.99703787 -15.33068118 17.35458472 -15.14453125 14.7109375 C-15.10471634 13.90884857 -15.06490143 13.10675964 -15.02388 12.28036499 C-14.68971594 8.0698358 -14.31772755 6.38878108 -11.5534668 3.00634766 C-7.64510521 -0.06458795 -4.87446855 -0.1354019 0 0 Z " fill="#B030CC" transform="translate(89,84)"/>
<path d="M0 0 C7.33232678 -0.05067793 14.66460844 -0.08572428 21.99707031 -0.10986328 C24.49187915 -0.11992561 26.98667618 -0.13357679 29.48144531 -0.15087891 C33.06578484 -0.17511668 36.64996853 -0.18648082 40.234375 -0.1953125 C41.35116638 -0.20563507 42.46795776 -0.21595764 43.61859131 -0.22659302 C44.65936829 -0.22674408 45.70014526 -0.22689514 46.77246094 -0.22705078 C47.68735291 -0.231492 48.60224487 -0.23593323 49.54486084 -0.24050903 C52.13932269 0.01364825 53.76969393 0.68601902 56 2 C55.33823257 1.99777939 54.67646515 1.99555878 53.99464417 1.99327087 C47.1333978 1.97122035 40.27216143 1.95609438 33.41088867 1.94506836 C30.84708243 1.9400263 28.28327909 1.93319286 25.71948242 1.92456055 C22.04344979 1.91248936 18.36745502 1.90677058 14.69140625 1.90234375 C13.53725723 1.89718246 12.38310822 1.89202118 11.19398499 1.88670349 C10.13296066 1.88662796 9.07193634 1.88655243 7.97875977 1.88647461 C7.03944107 1.884254 6.10012238 1.88203339 5.13233948 1.87974548 C3.01636959 1.76157355 3.01636959 1.76157355 2 3 C1.60333773 5.18019479 1.25684763 7.3696463 0.9375 9.5625 C0.76089844 10.76003906 0.58429688 11.95757812 0.40234375 13.19140625 C0.26957031 14.11824219 0.13679688 15.04507813 0 16 C-0.33 16 -0.66 16 -1 16 C-1.02725341 14.2709226 -1.04650987 12.54171824 -1.0625 10.8125 C-1.07410156 9.84957031 -1.08570313 8.88664062 -1.09765625 7.89453125 C-1.00468299 5.13880371 -0.57267638 2.68900295 0 0 Z " fill="#14CEF6" transform="translate(507,88)"/>
<path d="M0 0 C-2.63595772 2.63595772 -5.06187181 3.07702112 -8.625 4.125 C-9.81351563 4.47820312 -11.00203125 4.83140625 -12.2265625 5.1953125 C-13.14179688 5.46085938 -14.05703125 5.72640625 -15 6 C-15.66 5.34 -16.32 4.68 -17 4 C-17.33 4.33 -17.66 4.66 -18 5 C-19.99782126 5.15825258 -22.00088834 5.25119171 -24.00390625 5.31640625 C-25.21884766 5.35830078 -26.43378906 5.40019531 -27.68554688 5.44335938 C-28.96494141 5.48267578 -30.24433594 5.52199219 -31.5625 5.5625 C-32.84576172 5.60568359 -34.12902344 5.64886719 -35.45117188 5.69335938 C-38.63399853 5.799848 -41.81690674 5.90185962 -45 6 C-44.67 5.34 -44.34 4.68 -44 4 C-41.3328762 3.53370354 -38.74390109 3.19500459 -36.0546875 2.9296875 C-35.2514505 2.84373322 -34.4482135 2.75777893 -33.62063599 2.66921997 C-31.91454184 2.48847258 -30.20796378 2.31224564 -28.50097656 2.14013672 C-25.90575601 1.87810534 -23.31227848 1.6024498 -20.71875 1.32421875 C-19.0599809 1.15022872 -17.40112888 0.97702708 -15.7421875 0.8046875 C-14.58709183 0.68285599 -14.58709183 0.68285599 -13.40866089 0.55856323 C-8.912923 0.10943789 -4.51815023 -0.07693329 0 0 Z " fill="#2953E3" transform="translate(176,181)"/>
<path d="M0 0 C0.33 0 0.66 0 1 0 C1.13121601 7.82922213 0.79415453 15.54376907 0.22265625 23.3515625 C-0.07567292 28.23997387 -0.09159048 33.10499772 0 38 C1.65 38.33 3.3 38.66 5 39 C4.67 39.66 4.34 40.32 4 41 C2.02 40.34 0.04 39.68 -2 39 C-3.22681088 32.60403545 -2.95066375 26.54065426 -2.6875 20.0625 C-2.65205078 18.90814453 -2.61660156 17.75378906 -2.58007812 16.56445312 C-2.35553912 10.72308775 -1.96867689 5.5203307 0 0 Z " fill="#9B38D2" transform="translate(80,128)"/>
<path d="M0 0 C2 1 2 1 3 3 C1.02 3.33 -0.96 3.66 -3 4 C-3 5.32 -3 6.64 -3 8 C-4.6796875 9.484375 -4.6796875 9.484375 -6.875 10.75 C-7.95394531 11.39195312 -7.95394531 11.39195312 -9.0546875 12.046875 C-11 13 -11 13 -13 13 C-13 11.02 -13 9.04 -13 7 C-11.68 6.67 -10.36 6.34 -9 6 C-9 5.34 -9 4.68 -9 4 C-7.54618103 3.30300448 -6.08677047 2.61766134 -4.625 1.9375 C-3.81289062 1.55464844 -3.00078125 1.17179688 -2.1640625 0.77734375 C-1.09285156 0.39255859 -1.09285156 0.39255859 0 0 Z " fill="#2A17DF" transform="translate(147,192)"/>
<path d="M0 0 C1.2065625 0.0309375 1.2065625 0.0309375 2.4375 0.0625 C1.05782992 2.82184016 -0.6167345 3.23788641 -3.375 4.5625 C-4.24769531 4.9853125 -5.12039062 5.408125 -6.01953125 5.84375 C-7.61374569 6.60779747 -9.21331141 7.36088239 -10.8203125 8.09765625 C-13.10256619 9.36159495 -13.49891679 10.72261694 -14.5625 13.0625 C-15.54270375 14.0819119 -16.54053008 15.08496356 -17.5625 16.0625 C-17.8925 16.7225 -18.2225 17.3825 -18.5625 18.0625 C-19.3828125 16.44921875 -19.3828125 16.44921875 -19.5625 14.0625 C-17.92552713 11.77493535 -16.36245749 9.88988606 -14.4375 7.875 C-13.95023437 7.32908203 -13.46296875 6.78316406 -12.9609375 6.22070312 C-9.98413848 3.0261861 -7.93551541 1.45933948 -3.5625 1.0625 C-2.5625 0.0625 -2.5625 0.0625 0 0 Z " fill="#0569EA" transform="translate(114.5625,227.9375)"/>
<path d="M0 0 C6.93 0 13.86 0 21 0 C20.67 0.66 20.34 1.32 20 2 C18.78441406 1.98839844 17.56882812 1.97679688 16.31640625 1.96484375 C14.73177236 1.95546722 13.14713682 1.94636687 11.5625 1.9375 C10.76005859 1.92912109 9.95761719 1.92074219 9.13085938 1.91210938 C7.08704779 1.9034857 5.04316098 1.9477185 3 2 C1.11525997 3.88474003 1.30668 7.02746402 0.9375 9.5625 C0.76089844 10.76003906 0.58429688 11.95757812 0.40234375 13.19140625 C0.26957031 14.11824219 0.13679688 15.04507813 0 16 C-0.33 16 -0.66 16 -1 16 C-1.02725341 14.2709226 -1.04650987 12.54171824 -1.0625 10.8125 C-1.07410156 9.84957031 -1.08570313 8.88664062 -1.09765625 7.89453125 C-1 5 -1 5 0 0 Z " fill="#15C4EE" transform="translate(507,88)"/>
<path d="M0 0 C0.33 0.99 0.66 1.98 1 3 C-6.92 6.96 -6.92 6.96 -15 11 C-15 10.01 -15 9.02 -15 8 C-13.1875 6.5 -13.1875 6.5 -11 5 C-10.2884375 4.2265625 -10.2884375 4.2265625 -9.5625 3.4375 C-6.70341767 0.80714425 -3.82700346 0 0 0 Z " fill="#171FE0" transform="translate(159,188)"/>
<path d="M0 0 C0.33 0 0.66 0 1 0 C1.16631339 12.03000164 0.6524986 23.9895138 0 36 C-0.33 36 -0.66 36 -1 36 C-2.60666308 9.82345757 -2.60666308 9.82345757 0 0 Z " fill="#A1216F" transform="translate(62,88)"/>
<path d="M0 0 C0.66 0.33 1.32 0.66 2 1 C-1.83286584 4.89061146 -5.78859729 8.62055805 -9.8125 12.3125 C-10.40998047 12.86228516 -11.00746094 13.41207031 -11.62304688 13.97851562 C-13.08114922 15.31996978 -14.5404504 16.66012065 -16 18 C-16.66 17.67 -17.32 17.34 -18 17 C-15.94062935 14.91349269 -13.87766489 12.83075945 -11.8125 10.75 C-11.23435547 10.16347656 -10.65621094 9.57695312 -10.06054688 8.97265625 C-6.85617604 5.75018163 -3.62534642 2.75826734 0 0 Z " fill="#157CEC" transform="translate(125,212)"/>
<path d="M0 0 C3.91939465 3.80411834 7.49102731 7.81576108 11 12 C8.53199953 10.84826645 6.95216435 9.95216435 5 8 C4.01 8.66 3.02 9.32 2 10 C0.39644899 6.49223216 -0.22036864 3.85645121 0 0 Z " fill="#F117E2" transform="translate(32,150)"/>
<path d="M0 0 C0 3.3 0 6.6 0 10 C-0.33 10 -0.66 10 -1 10 C-1.33 8.02 -1.66 6.04 -2 4 C-5.3 4.33 -8.6 4.66 -12 5 C-4.5 0 -4.5 0 0 0 Z " fill="#015CC2" transform="translate(812,184)"/>
<path d="M0 0 C0.33 0 0.66 0 1 0 C1.05423638 1.91635217 1.09289963 3.83314925 1.125 5.75 C1.14820313 6.81734375 1.17140625 7.8846875 1.1953125 8.984375 C1.00487687 11.92470106 0.52670104 13.52361878 -1 16 C-1.33 16 -1.66 16 -2 16 C-2 13.03 -2 10.06 -2 7 C-1.34 7 -0.68 7 0 7 C0 4.69 0 2.38 0 0 Z " fill="#0B3853" transform="translate(216,112)"/>
<path d="M0 0 C-2 2 -2 2 -5.4375 2.9375 C-10.24673517 4.37183329 -11.28284949 5.92427423 -14 10 C-13.51219512 4.51219512 -13.51219512 4.51219512 -11.1875 2.1875 C-7.39464912 0.12852381 -4.28832645 -0.11912018 0 0 Z " fill="#B63AB1" transform="translate(89,84)"/>
<path d="M0 0 C0.33 0 0.66 0 1 0 C1.13277344 0.96421875 1.26554687 1.9284375 1.40234375 2.921875 C1.57894531 4.18515625 1.75554688 5.4484375 1.9375 6.75 C2.19853516 8.62945312 2.19853516 8.62945312 2.46484375 10.546875 C2.89047235 13.83310821 2.89047235 13.83310821 3.69140625 16.265625 C4 18 4 18 2 21 C0.65504172 13.90294338 -0.24091535 7.2274605 0 0 Z " fill="#D20C90" transform="translate(28,129)"/>
<path d="M0 0 C0 4.55332944 -2.5878844 7.53558382 -5.6875 10.75 C-6.3371875 11.36875 -6.3371875 11.36875 -7 12 C-7.33 12.66 -7.66 13.32 -8 14 C-8.77734375 12.328125 -8.77734375 12.328125 -9 10 C-7.12890625 7.421875 -7.12890625 7.421875 -4.5625 4.75 C-3.29599609 3.41195312 -3.29599609 3.41195312 -2.00390625 2.046875 C-1.34261719 1.37140625 -0.68132812 0.6959375 0 0 Z " fill="#1049E6" transform="translate(104,232)"/>
<path d="M0 0 C1.32 0 2.64 0 4 0 C3.25675659 2.39489543 2.52942646 3.70777616 0.30859375 4.93359375 C-1.44073501 5.67219923 -3.21934149 6.34049685 -5 7 C-5 6.01 -5 5.02 -5 4 C-3.0625 2.375 -3.0625 2.375 -1 1 C-0.67 0.67 -0.34 0.34 0 0 Z " fill="#1716D7" transform="translate(149,192)"/>
<path d="M0 0 C-3.07037127 2.04691418 -5.40615382 3.1932182 -9 4 C-11.375 2.625 -11.375 2.625 -13 1 C-8.59085217 -0.10228696 -4.51617599 -0.07654536 0 0 Z " fill="#0D1BC4" transform="translate(187,179)"/>
<path d="M0 0 C0.33 0 0.66 0 1 0 C1.05389087 1.95803507 1.09274217 3.91648909 1.125 5.875 C1.14820312 6.96554688 1.17140625 8.05609375 1.1953125 9.1796875 C1 12 1 12 -1 14 C-2.12029814 8.51053913 -1.79217969 5.16569441 0 0 Z " fill="#B436DC" transform="translate(80,128)"/>
<path d="M0 0 C-0.66 1.65 -1.32 3.3 -2 5 C-2.66 5 -3.32 5 -4 5 C-4.33 5.99 -4.66 6.98 -5 8 C-5.66 8 -6.32 8 -7 8 C-4.18918919 0 -4.18918919 0 0 0 Z " fill="#19AEDE" transform="translate(617,90)"/>
<path d="M0 0 C2.31 0 4.62 0 7 0 C4.3144406 2.6855594 1.62378672 3.06049974 -2 4 C-1.34 2.68 -0.68 1.36 0 0 Z " fill="#1A37F2" transform="translate(169,181)"/>
<path d="M0 0 C-1.16290805 3.48872415 -2.13967609 4.09976864 -5.0625 6.1875 C-5.79597656 6.71730469 -6.52945313 7.24710938 -7.28515625 7.79296875 C-7.85105469 8.19128906 -8.41695312 8.58960938 -9 9 C-7.26653013 5.24414862 -4.57230154 0 0 0 Z " fill="#0899E3" transform="translate(756,132)"/>
<path d="M0 0 C0.66 0.33 1.32 0.66 2 1 C0.35 2.65 -1.3 4.3 -3 6 C-3.99 4.68 -4.98 3.36 -6 2 C-4.7934375 1.7834375 -4.7934375 1.7834375 -3.5625 1.5625 C-1.07896294 1.25864751 -1.07896294 1.25864751 0 0 Z " fill="#710CD2" transform="translate(90,228)"/>
<path d="M0 0 C2.31 0.33 4.62 0.66 7 1 C3.09971775 3.60018816 -0.47434569 3.15085514 -5 3 C-5 2.67 -5 2.34 -5 2 C-3.35 2 -1.7 2 0 2 C0 1.34 0 0.68 0 0 Z " fill="#094A7D" transform="translate(189,152)"/>
<path d="M0 0 C0.99 0 1.98 0 3 0 C2.67 2.64 2.34 5.28 2 8 C-0.1519437 4.77208445 -0.20086443 3.71599191 0 0 Z " fill="#A42EE5" transform="translate(238,138)"/>
</svg>
